<svg width="50" height="50" viewBox="0 0 50 50" fill="none" xmlns="http://www.w3.org/2000/svg">
<path d="M45.3408 39.5909C45.2744 37.8778 44.7249 36.2184 43.7557 34.8042C42.7866 33.39 41.4373 32.2787 39.8636 31.5985L32.4469 28.6212L31.1666 26.5151V25.2879C32.0151 24.3502 32.6829 23.2638 33.1363 22.0833C33.4213 21.249 33.6366 20.3926 33.7802 19.5227H33.9469H34.0908C34.4223 19.5187 34.7433 19.4062 35.0047 19.2023C35.266 18.9984 35.4533 18.7144 35.5378 18.3939H35.606L36.3636 18.4772H36.4696C36.7475 18.4847 37.0179 18.3874 37.2272 18.2045C37.4476 18.0008 37.5852 17.723 37.6136 17.4242L37.8787 14.2576C37.9086 13.9458 37.815 13.6347 37.6182 13.3911C37.4213 13.1475 37.1368 12.9908 36.8257 12.9545L36.0681 12.8788H36.0227C35.9719 12.6466 35.8674 12.4297 35.7173 12.2455C35.5673 12.0612 35.3761 11.9148 35.159 11.8182V11.7121C35.9924 8.33331 34.8484 6.46967 33.3333 4.11361C31.7045 1.42422 27.1666 0.227248 21.5378 0.977248C20.866 1.01437 20.2082 1.1841 19.6023 1.47665C18.9964 1.7692 18.4544 2.17879 18.0075 2.68179C17.746 3.02442 17.5625 3.41999 17.4696 3.84088C16.8475 3.93188 16.2768 4.23736 15.856 4.70452C14.3408 6.37876 14.4014 9.9621 14.7045 11.8939C14.5256 12.0008 14.3708 12.1434 14.2495 12.3129C14.1283 12.4823 14.0433 12.675 13.9999 12.8788H13.9393L13.1818 12.9545C12.8701 12.9908 12.5848 13.1472 12.3868 13.3906C12.1887 13.634 12.0934 13.945 12.1211 14.2576L12.409 17.4242C12.4287 17.5851 12.4803 17.7403 12.561 17.8809C12.6417 18.0214 12.7497 18.1443 12.8787 18.2424C13.0899 18.4212 13.3597 18.5157 13.6363 18.5076H13.7499L14.5075 18.4318C14.5866 18.7304 14.7591 18.9959 14.9999 19.1894C15.2554 19.4051 15.575 19.5303 15.909 19.5454H16.0454H16.1666C16.3039 20.4141 16.5194 21.2686 16.8105 22.0985C17.2611 23.2826 17.9291 24.3721 18.7802 25.3106V26.5151L17.4242 28.6591L10.3711 31.5076C8.73318 32.2209 7.32893 33.3806 6.31884 34.8542C5.30875 36.3279 4.73357 38.0559 4.65902 39.8409L4.31812 48.4848C4.31812 48.6857 4.39793 48.8784 4.54 49.0205C4.68208 49.1626 4.87477 49.2424 5.07569 49.2424H44.9242C45.1251 49.2424 45.3178 49.1626 45.4599 49.0205C45.6019 48.8784 45.6818 48.6857 45.6818 48.4848L45.3408 39.5909ZM24.3787 30.4091C22.9772 29.2576 21.4696 27.9242 20.7424 27.1666C21.9302 28.0929 23.39 28.6023 24.8962 28.616C26.4024 28.6297 27.8712 28.147 29.0757 27.2424C28.3181 28 26.803 29.303 25.4318 30.4091H24.3787ZM26.9393 31.1666C28.1428 30.2289 29.2865 29.2169 30.3636 28.1363L31.1211 29.3257L29.2424 33.6742C28.5775 32.7449 27.8044 31.898 26.9393 31.1515V31.1666ZM34.0908 18.0303L33.4242 17.9848L33.856 13.1363H34.0605H34.0908H34.5302L34.0908 18.0303ZM36.3636 14.4318L36.1514 16.9621L35.8105 16.9242H35.7196L35.9318 14.3939L36.3636 14.4318ZM16.9621 5.73482C17.0997 5.57493 17.2749 5.45176 17.4719 5.37638C17.669 5.30101 17.8816 5.27579 18.0908 5.30301C18.2036 5.3134 18.3173 5.29837 18.4235 5.25904C18.5297 5.21971 18.6257 5.15707 18.7045 5.07573C18.7841 5.00014 18.8463 4.90814 18.8869 4.80611C18.9275 4.70408 18.9453 4.59445 18.9393 4.48482C18.9393 4.32573 18.8636 2.87119 21.7575 2.48482C26.7196 1.81816 30.7802 2.7727 32.106 4.90907C33.4318 7.04543 34.3787 8.59846 33.7045 11.3485C33.7045 11.4469 33.6666 11.5454 33.6439 11.6439C33.3074 11.6949 32.9978 11.8577 32.7651 12.106C32.589 11.2806 32.3143 10.4794 31.9469 9.71967C30.6363 7.28028 28.6742 7.34846 27.2348 7.40149H26.8863C26.4171 7.42263 25.9493 7.46814 25.4848 7.53785C23.9696 7.7424 21.9014 8.01513 19.9014 7.17422C19.7863 7.12605 19.6611 7.10706 19.5368 7.11896C19.4126 7.13085 19.2932 7.17326 19.1893 7.2424C17.7281 8.28857 16.7246 9.85616 16.3863 11.6212H16.2196C15.909 9.73482 15.9545 6.81816 16.9621 5.73482ZM13.8939 16.9621L13.6818 14.4318L14.0378 14.3939L14.2727 16.9318C14.245 16.928 14.217 16.928 14.1893 16.9318L13.8939 16.9621ZM15.909 18.0303L15.4469 13.1969L16.1211 13.1212L16.5908 17.9697L15.909 18.0303ZM17.6136 19.0757L17.7424 18.9469C17.996 18.6398 18.1184 18.2452 18.0833 17.8485L17.7272 13.9621C17.7272 13.4166 17.7727 12.8636 17.7954 12.356C17.855 11.6583 18.0541 10.9797 18.3807 10.3603C18.7073 9.74089 19.1549 9.19332 19.6969 8.74998C21.6234 9.34141 23.6662 9.4481 25.6439 9.06058C26.1363 8.9924 26.5605 8.93937 26.8863 8.92422H27.2727C28.6514 8.87876 29.7348 8.83331 30.5984 10.4394C31.356 11.8788 31.8408 15.303 31.9696 17.1742L31.909 17.856C31.879 18.1443 31.9371 18.4349 32.0757 18.6894C32.044 18.7497 32.0186 18.8132 31.9999 18.8788C31.5227 20.8636 28.5908 22.0757 26.9014 22.553C26.6935 22.1688 26.3595 21.8679 25.9558 21.701C25.5521 21.534 25.1032 21.5112 24.6846 21.6363C24.266 21.7615 23.9033 22.0269 23.6574 22.388C23.4115 22.7492 23.2975 23.1839 23.3345 23.6192C23.3715 24.0546 23.5573 24.4639 23.8606 24.7783C24.1639 25.0927 24.5662 25.2932 24.9999 25.3458C25.4336 25.3985 25.8722 25.3003 26.242 25.0676C26.6117 24.8349 26.8901 24.482 27.0302 24.0682C28.6668 23.669 30.2104 22.9564 31.5757 21.9697C30.8281 23.4968 29.7426 24.8336 28.4014 25.8788C27.4459 26.6538 26.253 27.0768 25.0227 27.0768C23.7923 27.0768 22.5994 26.6538 21.6439 25.8788C20.1688 24.7462 19.0125 23.2506 18.2878 21.5379C17.9901 20.74 17.7694 19.9156 17.6287 19.0757H17.6136ZM25.606 23.4848C25.606 23.5612 25.5833 23.6359 25.5409 23.6995C25.4984 23.763 25.4381 23.8125 25.3675 23.8418C25.2969 23.871 25.2192 23.8787 25.1443 23.8638C25.0693 23.8489 25.0005 23.8121 24.9464 23.758C24.8924 23.704 24.8556 23.6351 24.8407 23.5602C24.8258 23.4853 24.8334 23.4076 24.8627 23.337C24.8919 23.2664 24.9414 23.206 25.005 23.1636C25.0685 23.1211 25.1432 23.0985 25.2196 23.0985C25.3221 23.0985 25.4204 23.1392 25.4928 23.2116C25.5653 23.2841 25.606 23.3824 25.606 23.4848ZM19.5454 28.1212C20.5744 29.1706 21.6701 30.1524 22.8257 31.0606C21.9623 31.7044 21.1967 32.4699 20.553 33.3333L18.7727 29.2879L19.5454 28.1212ZM6.15902 39.9166C6.21269 38.2696 6.77949 36.6804 7.78024 35.3712C8.60465 34.2876 9.692 33.4323 10.9393 32.8863L17.5227 30.2197L19.3863 34.4394C19.432 34.647 19.5361 34.8373 19.6865 34.9877C19.8368 35.138 20.0271 35.2422 20.2348 35.2879C20.3179 35.2953 20.4016 35.2953 20.4848 35.2879C20.6824 35.2874 20.8764 35.2355 21.0478 35.1372C21.2192 35.0389 21.362 34.8976 21.4621 34.7273C21.6862 34.3709 21.9396 34.0339 22.2196 33.7197L23.2802 34.8788L21.9696 47.7273H5.86357L6.15902 39.9166ZM23.4848 47.7273L24.7499 34.7348C24.7608 34.6298 24.7495 34.5236 24.7169 34.4231C24.6843 34.3227 24.631 34.2302 24.5605 34.1515L23.2575 32.6969C23.5793 32.4262 23.9156 32.1733 24.2651 31.9394H25.5075C25.7045 32.0985 26.0227 32.3636 26.3863 32.6969L25.2348 34.1591C25.113 34.3134 25.0559 34.509 25.0757 34.7045L26.3863 47.7273H23.4848ZM27.8787 47.7273L26.6136 34.8485L27.4393 33.803C27.7745 34.2033 28.0784 34.6288 28.3484 35.0757C28.4464 35.2485 28.5885 35.3922 28.7602 35.492C28.9319 35.5918 29.1271 35.6443 29.3257 35.6439C29.3998 35.6371 29.4733 35.6244 29.5454 35.606C29.754 35.5598 29.945 35.4545 30.0955 35.3027C30.2459 35.1509 30.3495 34.959 30.3939 34.75L32.303 30.2045L39.2499 32.9924C40.4127 33.4924 41.4332 34.2734 42.2196 35.2651C43.1839 36.5128 43.7347 38.0303 43.7954 39.606L44.1363 47.7273H27.8787Z" fill="black"/>
</svg>
