<svg width="50" height="50" viewBox="0 0 50 50" fill="none" xmlns="http://www.w3.org/2000/svg">
<path d="M41.5286 23.6715C41.055 23.6715 40.6008 23.4833 40.2659 23.1484C39.9311 22.8136 39.7429 22.3594 39.7429 21.8857V16.8429C39.7429 9.70004 33.1429 3.98575 25.0286 3.98575C16.9144 3.98575 10.3143 9.77146 10.3143 16.8429V21.8857C10.3143 22.3594 10.1262 22.8136 9.79132 23.1484C9.45644 23.4833 9.00224 23.6715 8.52863 23.6715C8.05503 23.6715 7.60083 23.4833 7.26594 23.1484C6.93106 22.8136 6.74292 22.3594 6.74292 21.8857V16.8429C6.74292 7.75718 14.9572 0.357178 25.0286 0.357178C35.1001 0.357178 43.3143 7.75718 43.3143 16.8429V21.8857C43.3163 22.1208 43.2714 22.3538 43.1823 22.5714C43.0932 22.7889 42.9618 22.9865 42.7956 23.1527C42.6294 23.3189 42.4318 23.4503 42.2142 23.5394C41.9967 23.6285 41.7637 23.6734 41.5286 23.6715Z" fill="black"/>
<path d="M36.7001 40.4714C36.2265 40.4714 35.7723 40.2833 35.4374 39.9484C35.1025 39.6135 34.9144 39.1593 34.9144 38.6857V21.7286C34.9292 21.2649 35.1239 20.8253 35.4572 20.5027C35.7905 20.18 36.2362 19.9998 36.7001 20C42.8572 20 47.8715 24.6143 47.8715 30.2714C47.8715 35.9286 42.8572 40.4714 36.7001 40.4714ZM38.4858 23.7V36.7143C40.0492 36.4554 41.477 35.6695 42.5321 34.4871C43.5872 33.3047 44.206 31.797 44.2858 30.2143C44.2092 28.6291 43.5918 27.118 42.5364 25.9327C41.4811 24.7474 40.0515 23.9594 38.4858 23.7ZM13.3001 40.4714C7.14295 40.4714 2.12866 35.8714 2.12866 30.2143C2.12866 24.5571 7.14295 20 13.3001 20C13.7737 20 14.2279 20.1881 14.5628 20.523C14.8977 20.8579 15.0858 21.3121 15.0858 21.7857V38.6857C15.0858 39.1593 14.8977 39.6135 14.5628 39.9484C14.2279 40.2833 13.7737 40.4714 13.3001 40.4714ZM11.5144 23.7C9.94867 23.9594 8.51909 24.7474 7.46375 25.9327C6.4084 27.118 5.791 28.6291 5.71438 30.2143C5.79417 31.797 6.413 33.3047 7.46807 34.4871C8.52314 35.6695 9.95096 36.4554 11.5144 36.7143V23.7Z" fill="black"/>
<path d="M36.1141 46.2857H30.1998C29.7262 46.2857 29.272 46.0975 28.9371 45.7627C28.6022 45.4278 28.4141 44.9736 28.4141 44.5C28.4141 44.0264 28.6022 43.5722 28.9371 43.2373C29.272 42.9024 29.7262 42.7142 30.1998 42.7142H36.1141C37.0385 42.7142 37.9251 42.347 38.5788 41.6933C39.2325 41.0396 39.5998 40.153 39.5998 39.2285V38.4428C39.5998 37.9692 39.7879 37.515 40.1228 37.1801C40.4577 36.8452 40.9119 36.6571 41.3855 36.6571C41.8591 36.6571 42.3133 36.8452 42.6482 37.1801C42.9831 37.515 43.1712 37.9692 43.1712 38.4428V39.2285C43.1712 41.1002 42.4277 42.8952 41.1042 44.2187C39.7807 45.5422 37.9857 46.2857 36.1141 46.2857Z" fill="black"/>
<path d="M27.1428 49.6428H23.6142C22.3185 49.6428 21.0758 49.1281 20.1595 48.2118C19.2433 47.2956 18.7285 46.0529 18.7285 44.7571V44.5571C18.7323 43.2638 19.2487 42.0248 20.1646 41.1116C21.0804 40.1984 22.3209 39.6857 23.6142 39.6857H27.1428C28.4348 39.6857 29.6739 40.1989 30.5874 41.1125C31.501 42.026 32.0142 43.2651 32.0142 44.5571V44.7571C32.0142 46.0504 31.5015 47.2909 30.5883 48.2068C29.6751 49.1226 28.4361 49.639 27.1428 49.6428ZM23.6428 43.2571C23.2967 43.2571 22.9645 43.3936 22.7185 43.637C22.4724 43.8804 22.3323 44.211 22.3285 44.5571V44.7571C22.3285 45.1057 22.467 45.44 22.7135 45.6864C22.9599 45.9329 23.2942 46.0714 23.6428 46.0714H27.1428C27.4889 46.0676 27.8195 45.9275 28.0629 45.6814C28.3063 45.4354 28.4428 45.1032 28.4428 44.7571V44.5571C28.4428 44.2123 28.3058 43.8817 28.062 43.6379C27.8182 43.3941 27.4876 43.2571 27.1428 43.2571H23.6428Z" fill="black"/>
</svg>
