<svg width="50" height="50" viewBox="0 0 50 50" fill="none" xmlns="http://www.w3.org/2000/svg">
<g clip-path="url(#clip0_51_94)">
<path d="M25.0001 50C24.9064 50 24.8126 49.9844 24.7267 49.9453L23.5001 49.4688C5.4298 42.3828 2.4298 22.1484 3.37511 12.4375L3.65636 9.49219C3.67511 9.30823 3.75981 9.13728 3.89479 9.0109C4.02978 8.88453 4.20594 8.81128 4.39074 8.80469L7.35167 8.72656C16.7345 8.46875 21.7579 3.19531 21.9611 2.97656L24.4376 0.242188C24.7267 -0.078125 25.2736 -0.078125 25.5626 0.242188L28.047 2.98438C28.0939 3.03906 33.1954 8.46875 42.6485 8.72656L45.6095 8.80469C45.9923 8.8125 46.3048 9.10938 46.3439 9.49219L46.6251 12.4375C47.5626 22.1484 44.5626 42.3828 26.5001 49.4688L25.2735 49.9453C25.1876 49.9844 25.0939 50 25.0001 50ZM5.10167 10.3047L4.88292 12.5859C3.97667 21.8984 6.82824 41.2969 24.0548 48.0547L25.0001 48.4297L25.9454 48.0547C43.172 41.2969 46.0235 21.8984 45.1173 12.5781L44.8986 10.2969L42.6095 10.2344C32.3907 9.95313 26.9767 4.04688 26.922 3.99219L25.0001 1.875L23.0782 4C22.8439 4.25 17.4064 9.96875 7.39074 10.2422L5.10167 10.3047Z" fill="black"/>
<path d="M24.9999 46.3984C24.9061 46.3984 24.8124 46.3828 24.7264 46.3438C4.46863 38.4063 6.67957 13.0156 6.71082 12.7578C6.72957 12.5739 6.81426 12.4029 6.94925 12.2765C7.08424 12.1502 7.2604 12.0769 7.4452 12.0703C18.3593 11.7734 24.3827 5.28907 24.4452 5.22657C24.7343 4.91407 25.2811 4.90626 25.5702 5.22657C25.6327 5.28907 31.6561 11.7734 42.5702 12.0703C42.953 12.0781 43.2655 12.375 43.3046 12.7578C43.328 13.0156 45.5389 38.3984 25.2889 46.3438C25.1874 46.3828 25.0936 46.3984 24.9999 46.3984ZM8.17176 13.5625C7.98426 17.4922 7.8827 37.8984 24.9999 44.8281C42.1171 37.8984 42.0155 17.5 41.828 13.5625C32.4686 13.0938 26.7499 8.45313 24.9999 6.81251C23.2577 8.45313 17.5311 13.0938 8.17176 13.5625Z" fill="black"/>
<path d="M25 46.3984C24.5781 46.3984 24.2422 46.0625 24.2422 45.6406V5.74219C24.2422 5.32031 24.5781 4.98438 25 4.98438C25.4219 4.98438 25.7578 5.32031 25.7578 5.74219V45.6406C25.7578 46.0625 25.4219 46.3984 25 46.3984Z" fill="black"/>
<path d="M41.5703 25.75H8.42969C8.00781 25.75 7.67188 25.4141 7.67188 24.9922C7.67188 24.5703 8.00781 24.2344 8.42969 24.2344H41.5703C41.9922 24.2344 42.3281 24.5703 42.3281 24.9922C42.3281 25.4141 41.9922 25.75 41.5703 25.75Z" fill="black"/>
</g>
<defs>
<clipPath id="clip0_51_94">
<rect width="50" height="50" fill="white"/>
</clipPath>
</defs>
</svg>
