<svg width="27" height="55" fill="none" xmlns="http://www.w3.org/2000/svg"><path d="M7.295 44.383c-.135-.477.114-.99.572-1.145l5.436-1.769c.45-.142.936.12 1.083.605.137.486-.114.99-.572 1.145l-5.436 1.769c-.46.144-.936-.121-1.083-.605z" fill="#00BDBC"/><path d="M10.19 30.723c0 .56-.44 1.005-.97.994l-6.28-.095c-.53 0-.95-.465-.94-1.026 0-.56.44-1.004.97-.994l6.28.096c.53 0 .95.465.94 1.025z" fill="#FF2B77"/><path d="M14.15 16.06c-.21.688-.92 1.058-1.57.836l-7.73-2.707c-.65-.222-1-.973-.79-1.66.21-.687.92-1.057 1.57-.835l7.73 2.706c.65.223 1 .973.79 1.66z" fill="#EE9000"/><path d="M25.93 7.826a1.13 1.13 0 0 1-1.64.232l-6.114-4.916c-.514-.412-.609-1.19-.22-1.734a1.13 1.13 0 0 1 1.64-.232l6.114 4.916c.514.412.609 1.19.22 1.734z" fill="#0060C0"/><path d="M19.13 52.22c-.253-.375-.168-.916.195-1.178l4.316-3.218a.772.772 0 0 1 1.115.205c.254.376.17.917-.194 1.18l-4.316 3.217a.772.772 0 0 1-1.115-.205z" fill="#81C042"/></svg>